
<svg width="59" height="94" viewBox="0 0 59 94" fill="none" xmlns="http://www.w3.org/2000/svg">
<path d="M3.96449 87.6364C3.9304 87.3485 3.79214 87.125 3.54972 86.9659C3.30729 86.8068 3.00994 86.7273 2.65767 86.7273C2.40009 86.7273 2.17472 86.7689 1.98153 86.8523C1.79025 86.9356 1.64063 87.0502 1.53267 87.196C1.42661 87.3419 1.37358 87.5076 1.37358 87.6932C1.37358 87.8485 1.41051 87.982 1.48438 88.0938C1.56013 88.2036 1.65672 88.2955 1.77415 88.3693C1.89157 88.4413 2.01468 88.5009 2.14347 88.5483C2.27225 88.5937 2.39062 88.6307 2.49858 88.6591L3.08949 88.8182C3.241 88.858 3.40956 88.9129 3.59517 88.983C3.78267 89.053 3.96165 89.1487 4.1321 89.2699C4.30445 89.3892 4.4465 89.5426 4.55824 89.7301C4.66998 89.9176 4.72585 90.1477 4.72585 90.4205C4.72585 90.7348 4.64347 91.0189 4.47869 91.2727C4.31581 91.5265 4.07718 91.7282 3.76278 91.8778C3.45028 92.0275 3.07055 92.1023 2.62358 92.1023C2.20691 92.1023 1.84612 92.035 1.54119 91.9006C1.23816 91.7661 0.999527 91.5786 0.825284 91.3381C0.652936 91.0975 0.555398 90.8182 0.53267 90.5H1.25994C1.27888 90.7197 1.35275 90.9015 1.48153 91.0455C1.61222 91.1875 1.77699 91.2936 1.97585 91.3636C2.17661 91.4318 2.39252 91.4659 2.62358 91.4659C2.89252 91.4659 3.134 91.4223 3.34801 91.3352C3.56203 91.2462 3.73153 91.1231 3.85653 90.9659C3.98153 90.8068 4.04403 90.6212 4.04403 90.4091C4.04403 90.2159 3.99006 90.0587 3.8821 89.9375C3.77415 89.8163 3.6321 89.7178 3.45597 89.642C3.27983 89.5663 3.08949 89.5 2.88494 89.4432L2.16903 89.2386C1.71449 89.108 1.35464 88.9214 1.08949 88.679C0.824337 88.4366 0.691761 88.1193 0.691761 87.7273C0.691761 87.4015 0.77983 87.1174 0.955966 86.875C1.134 86.6307 1.37263 86.4413 1.67188 86.3068C1.97301 86.1705 2.30919 86.1023 2.6804 86.1023C3.0554 86.1023 3.38873 86.1695 3.6804 86.304C3.97206 86.4366 4.20313 86.6184 4.37358 86.8494C4.54593 87.0805 4.63684 87.3428 4.64631 87.6364H3.96449ZM10.5661 88H9.86151C9.81984 87.7973 9.74692 87.6193 9.64276 87.4659C9.54048 87.3125 9.41548 87.1837 9.26776 87.0795C9.12192 86.9735 8.95999 86.8939 8.78196 86.8409C8.60393 86.7879 8.41832 86.7614 8.22514 86.7614C7.87287 86.7614 7.55374 86.8504 7.26776 87.0284C6.98366 87.2064 6.75734 87.4688 6.58878 87.8153C6.42211 88.1619 6.33878 88.5871 6.33878 89.0909C6.33878 89.5947 6.42211 90.0199 6.58878 90.3665C6.75734 90.7131 6.98366 90.9754 7.26776 91.1534C7.55374 91.3314 7.87287 91.4205 8.22514 91.4205C8.41832 91.4205 8.60393 91.3939 8.78196 91.3409C8.95999 91.2879 9.12192 91.2093 9.26776 91.1051C9.41548 90.9991 9.54048 90.8693 9.64276 90.7159C9.74692 90.5606 9.81984 90.3826 9.86151 90.1818H10.5661C10.513 90.4792 10.4164 90.7453 10.2763 90.9801C10.1361 91.215 9.96188 91.4148 9.75355 91.5795C9.54522 91.7424 9.31132 91.8665 9.05185 91.9517C8.79427 92.0369 8.5187 92.0795 8.22514 92.0795C7.72893 92.0795 7.28764 91.9583 6.90128 91.7159C6.51491 91.4735 6.21094 91.1288 5.98935 90.6818C5.76776 90.2348 5.65696 89.7045 5.65696 89.0909C5.65696 88.4773 5.76776 87.947 5.98935 87.5C6.21094 87.053 6.51491 86.7083 6.90128 86.4659C7.28764 86.2235 7.72893 86.1023 8.22514 86.1023C8.5187 86.1023 8.79427 86.1449 9.05185 86.2301C9.31132 86.3153 9.54522 86.4403 9.75355 86.6051C9.96188 86.768 10.1361 86.9669 10.2763 87.2017C10.4164 87.4347 10.513 87.7008 10.5661 88ZM11.7045 92V86.1818H13.6705C14.125 86.1818 14.4981 86.2595 14.7898 86.4148C15.0814 86.5682 15.2973 86.7794 15.4375 87.0483C15.5777 87.3172 15.6477 87.6231 15.6477 87.9659C15.6477 88.3087 15.5777 88.6127 15.4375 88.8778C15.2973 89.143 15.0824 89.3513 14.7926 89.5028C14.5028 89.6525 14.1326 89.7273 13.6818 89.7273H12.0909V89.0909H13.6591C13.9697 89.0909 14.2197 89.0455 14.4091 88.9545C14.6004 88.8636 14.7386 88.7348 14.8239 88.5682C14.911 88.3996 14.9545 88.1989 14.9545 87.9659C14.9545 87.733 14.911 87.5294 14.8239 87.3551C14.7367 87.1809 14.5975 87.0464 14.4062 86.9517C14.215 86.8551 13.9621 86.8068 13.6477 86.8068H12.4091V92H11.7045ZM14.4432 89.3864L15.875 92H15.0568L13.6477 89.3864H14.4432ZM21.7308 89.0909C21.7308 89.7045 21.62 90.2348 21.3984 90.6818C21.1768 91.1288 20.8729 91.4735 20.4865 91.7159C20.1001 91.9583 19.6589 92.0795 19.1626 92.0795C18.6664 92.0795 18.2251 91.9583 17.8388 91.7159C17.4524 91.4735 17.1484 91.1288 16.9268 90.6818C16.7053 90.2348 16.5945 89.7045 16.5945 89.0909C16.5945 88.4773 16.7053 87.947 16.9268 87.5C17.1484 87.053 17.4524 86.7083 17.8388 86.4659C18.2251 86.2235 18.6664 86.1023 19.1626 86.1023C19.6589 86.1023 20.1001 86.2235 20.4865 86.4659C20.8729 86.7083 21.1768 87.053 21.3984 87.5C21.62 87.947 21.7308 88.4773 21.7308 89.0909ZM21.049 89.0909C21.049 88.5871 20.9647 88.1619 20.7962 87.8153C20.6295 87.4688 20.4032 87.2064 20.1172 87.0284C19.8331 86.8504 19.5149 86.7614 19.1626 86.7614C18.8104 86.7614 18.4912 86.8504 18.2053 87.0284C17.9212 87.2064 17.6948 87.4688 17.5263 87.8153C17.3596 88.1619 17.2763 88.5871 17.2763 89.0909C17.2763 89.5947 17.3596 90.0199 17.5263 90.3665C17.6948 90.7131 17.9212 90.9754 18.2053 91.1534C18.4912 91.3314 18.8104 91.4205 19.1626 91.4205C19.5149 91.4205 19.8331 91.3314 20.1172 91.1534C20.4032 90.9754 20.6295 90.7131 20.7962 90.3665C20.9647 90.0199 21.049 89.5947 21.049 89.0909ZM22.9155 92V86.1818H23.62V91.375H26.3246V92H22.9155ZM27.4155 92V86.1818H28.12V91.375H30.8246V92H27.4155ZM35.9609 92H34.1655V86.1818H36.0405C36.6049 86.1818 37.0878 86.2983 37.4893 86.5312C37.8909 86.7623 38.1986 87.0947 38.4126 87.5284C38.6267 87.9602 38.7337 88.4773 38.7337 89.0795C38.7337 89.6856 38.6257 90.2074 38.4098 90.6449C38.1939 91.0805 37.8795 91.4157 37.4666 91.6506C37.0537 91.8835 36.5518 92 35.9609 92ZM34.87 91.375H35.9155C36.3965 91.375 36.7952 91.2822 37.1115 91.0966C37.4278 90.911 37.6636 90.6468 37.8189 90.304C37.9742 89.9612 38.0518 89.553 38.0518 89.0795C38.0518 88.6098 37.9751 88.2055 37.8217 87.8665C37.6683 87.5256 37.4392 87.2642 37.1342 87.0824C36.8293 86.8987 36.4496 86.8068 35.995 86.8068H34.87V91.375ZM44.8246 89.0909C44.8246 89.7045 44.7138 90.2348 44.4922 90.6818C44.2706 91.1288 43.9666 91.4735 43.5803 91.7159C43.1939 91.9583 42.7526 92.0795 42.2564 92.0795C41.7602 92.0795 41.3189 91.9583 40.9325 91.7159C40.5462 91.4735 40.2422 91.1288 40.0206 90.6818C39.799 90.2348 39.6882 89.7045 39.6882 89.0909C39.6882 88.4773 39.799 87.947 40.0206 87.5C40.2422 87.053 40.5462 86.7083 40.9325 86.4659C41.3189 86.2235 41.7602 86.1023 42.2564 86.1023C42.7526 86.1023 43.1939 86.2235 43.5803 86.4659C43.9666 86.7083 44.2706 87.053 44.4922 87.5C44.7138 87.947 44.8246 88.4773 44.8246 89.0909ZM44.1428 89.0909C44.1428 88.5871 44.0585 88.1619 43.8899 87.8153C43.7232 87.4688 43.4969 87.2064 43.2109 87.0284C42.9268 86.8504 42.6087 86.7614 42.2564 86.7614C41.9041 86.7614 41.585 86.8504 41.299 87.0284C41.0149 87.2064 40.7886 87.4688 40.62 87.8153C40.4534 88.1619 40.37 88.5871 40.37 89.0909C40.37 89.5947 40.4534 90.0199 40.62 90.3665C40.7886 90.7131 41.0149 90.9754 41.299 91.1534C41.585 91.3314 41.9041 91.4205 42.2564 91.4205C42.6087 91.4205 42.9268 91.3314 43.2109 91.1534C43.4969 90.9754 43.7232 90.7131 43.8899 90.3665C44.0585 90.0199 44.1428 89.5947 44.1428 89.0909ZM47.0661 92L45.4751 86.1818H46.1911L47.407 90.9205H47.4638L48.7024 86.1818H49.4979L50.7365 90.9205H50.7933L52.0092 86.1818H52.7251L51.1342 92H50.407L49.1229 87.3636H49.0774L47.7933 92H47.0661ZM58.2166 86.1818V92H57.5348L54.3643 87.4318H54.3075V92H53.603V86.1818H54.2848L57.4666 90.7614H57.5234V86.1818H58.2166Z" fill="black"/>
<rect x="11.5" y="1.5" width="37" height="77" rx="18.5" stroke="black" stroke-width="3"/>
<circle cx="29.5" cy="18.5" r="7.5" fill="black"/>
</svg>
